<svg width="77" height="64" viewBox="0 0 77 64" fill="none" xmlns="http://www.w3.org/2000/svg">
<path d="M72.7174 23.319H30.5834L12.5675 5.30306C11.1146 3.85017 8.79001 3.85017 7.48241 5.30306C6.02951 6.75596 6.02951 9.08059 7.48241 10.3882L26.9512 29.857V57.462C26.9512 59.496 28.5494 61.0942 30.5834 61.0942C32.6175 61.0942 34.2157 59.496 34.2157 57.462V33.4892H49.4711C50.0522 33.4892 50.6334 33.3439 51.2145 33.1986L56.1544 38.1385C56.8808 38.8649 57.7526 39.1555 58.7696 39.1555C59.6413 39.1555 60.6583 38.8649 61.3848 38.1385L68.9398 30.5834H72.8627C74.8967 30.5834 76.4949 28.9852 76.4949 26.9512C76.4949 24.9171 74.7514 23.319 72.7174 23.319ZM72.7174 29.1305H70.1022C70.3927 28.5494 70.538 27.9682 70.538 27.3871C70.538 26.37 70.1022 25.4983 69.521 24.7718H72.8627C74.025 24.7718 75.042 25.7889 75.042 26.9512C75.042 28.1135 74.025 29.1305 72.7174 29.1305ZM60.3678 37.1215C59.496 37.9932 58.1884 37.9932 57.3167 37.1215L52.6674 32.4722L52.0863 32.0363L50.0522 30.0023C50.0522 30.0023 49.9069 30.0023 49.9069 29.857C49.7616 29.7117 49.4711 29.7117 49.1805 29.857C49.1805 29.857 49.0352 29.857 49.0352 30.0023C48.8899 30.1476 48.7446 30.4381 48.8899 30.5834C48.8899 30.7287 49.0352 30.874 49.0352 31.0193L50.0522 32.0363C49.9069 32.0363 49.7616 32.0363 49.6163 32.0363H34.2157V24.7718H49.4711C50.4881 24.7718 51.3598 25.2077 52.0863 25.7889C52.0863 25.7889 52.0863 25.9342 52.2316 25.9342C52.6674 26.5153 53.2486 27.0965 53.8297 27.6776C54.1203 27.9682 54.4109 28.2588 54.5562 28.5494C54.8468 28.84 54.9921 28.9852 55.2826 29.2758C55.5732 29.5664 55.7185 29.7117 56.0091 30.0023C56.2997 30.2928 56.5902 30.4381 56.7355 30.7287C57.6073 31.6005 58.1884 32.1816 58.1884 32.1816C58.479 32.4722 58.9149 32.4722 59.2055 32.1816L65.4529 25.9342C65.8888 25.4983 66.4699 25.353 67.0511 25.353C67.6322 25.353 68.2134 25.6436 68.6493 25.9342C69.0851 26.37 69.2304 26.9512 69.2304 27.5323C69.2304 28.1135 68.9398 28.6947 68.6493 29.1305H68.3587L60.3678 37.1215ZM28.4041 57.462V26.9512C28.4041 25.9342 29.1305 25.0624 30.1476 24.7718C30.2928 24.7718 30.4381 24.7718 30.5834 24.7718H32.7628V57.462C32.7628 58.6243 31.7457 59.6413 30.5834 59.6413C29.4211 59.6413 28.4041 58.7696 28.4041 57.462ZM10.0976 5.73893C10.6788 5.73893 11.2599 5.88422 11.6958 6.32009L29.1305 23.7548C27.9682 24.336 27.0965 25.6436 27.0965 26.9512V27.8229L8.49943 9.51646C7.6277 8.64472 7.6277 7.33712 8.49943 6.46538C8.9353 5.88422 9.51646 5.73893 10.0976 5.73893ZM64.4359 24.7718C64.4359 24.9171 64.4359 24.9171 64.4359 24.7718L60.0772 29.1305H57.3167C56.0091 27.9682 54.4109 26.37 53.1033 24.7718H64.4359Z" fill="white"/>
<path d="M37.8479 62.5471H26.2247C25.7889 62.5471 25.4983 62.8377 25.4983 63.2736C25.4983 63.7094 25.7889 64 26.2247 64H37.8479C38.2838 64 38.5743 63.7094 38.5743 63.2736C38.5743 62.8377 38.2838 62.5471 37.8479 62.5471Z" fill="white"/>
<path d="M9.51646 0.217934C9.22588 -0.0726447 8.79001 -0.0726447 8.49943 0.217934L0.217934 8.49943C-0.0726447 8.79001 -0.0726447 9.22588 0.217934 9.51646C0.363224 9.66175 0.508512 9.66175 0.799091 9.66175C1.08967 9.66175 1.23496 9.66175 1.38025 9.51646L9.66175 1.23496C9.80704 0.944381 9.80704 0.508513 9.51646 0.217934Z" fill="white"/>
<path d="M49.4711 21.8661C52.2316 21.8661 54.5562 19.5414 54.5562 16.7809C54.5562 14.0204 52.3768 11.6958 49.4711 11.6958C46.5653 11.6958 44.3859 14.0204 44.3859 16.7809C44.3859 19.5414 46.7106 21.8661 49.4711 21.8661ZM49.4711 13.1487C51.5051 13.1487 53.1033 14.7469 53.1033 16.7809C53.1033 18.815 51.5051 20.4132 49.4711 20.4132C47.437 20.4132 45.8388 18.815 45.8388 16.7809C45.8388 14.7469 47.437 13.1487 49.4711 13.1487Z" fill="white"/>
</svg>
