<svg width="80" height="81" viewBox="0 0 80 81" fill="none" xmlns="http://www.w3.org/2000/svg">
<path d="M0 26.1396L54.8118 80.9513H57.3443L0 23.607V26.1396Z" fill="white"/>
<path d="M48.8421 21.6172H44.1388L35.8176 13.2959C36.5412 12.7532 37.4456 12.5723 38.3501 12.5723H39.7973L38.8928 11.6678L37.9883 10.9442C36.3603 10.9442 34.9131 11.6678 33.8277 12.7532L31.2951 15.2858C29.4862 17.0947 29.4862 19.9891 31.2951 21.6172L42.149 32.471L32.5614 42.0585C31.6569 42.963 31.2951 44.0484 31.2951 45.3147C31.2951 46.5809 31.8378 47.6663 32.5614 48.5708C33.4659 49.4753 34.5513 49.8371 35.8176 49.8371C37.0838 49.8371 38.1692 49.4753 39.0737 48.5708L51.9174 35.7271C53.7264 33.9182 53.7264 31.0238 51.9174 29.3957L46.1287 23.607H50.6511L49.7466 22.7025L48.8421 21.6172ZM50.4702 30.662C51.5556 31.7474 51.5556 33.3755 50.4702 34.4608L37.6265 47.3045C36.5412 48.3899 34.9131 48.3899 33.8277 47.3045C33.285 46.7618 33.1041 46.0382 33.1041 45.3147C33.1041 44.5911 33.4659 43.8675 33.8277 43.3248L44.1388 33.1946C44.3197 33.0137 44.3197 32.8328 44.3197 32.471C44.3197 32.2901 44.1388 31.9283 44.1388 31.7474L34.0086 21.6172L32.5614 20.3509C31.8378 19.6273 31.6569 18.361 32.0187 17.2756C32.1996 16.9138 32.3805 16.7329 32.5614 16.3711L34.3704 14.5622L50.4702 30.662Z" fill="white"/>
<path d="M30.0289 0.271345C29.6671 -0.0904485 29.1244 -0.0904485 28.7626 0.271345C28.4008 0.633139 28.4008 1.17583 28.7626 1.53763L38.8928 11.6678L39.7973 12.5723L48.8421 21.6172L55.5354 28.3104V25.7778L30.0289 0.271345Z" fill="white"/>
<path d="M72.7206 10.7634C69.2835 10.7634 66.3892 13.6577 66.3892 17.0948C66.3892 20.5318 69.2835 23.4262 72.7206 23.4262C76.1576 23.4262 79.052 20.5318 79.052 17.0948C79.052 13.6577 76.1576 10.7634 72.7206 10.7634ZM72.7206 21.6172C70.188 21.6172 68.1982 19.6273 68.1982 17.0948C68.1982 14.5622 70.188 12.5724 72.7206 12.5724C75.2531 12.5724 77.243 14.5622 77.243 17.0948C77.243 19.6273 75.0722 21.6172 72.7206 21.6172Z" fill="white"/>
<path d="M64.3993 29.7576V17.0948C64.3993 13.6577 61.5049 10.7634 58.0679 10.7634H40.34L42.149 12.5724H58.0679C60.6004 12.5724 62.5903 14.5622 62.5903 17.0948V29.9385C62.5903 30.1194 62.7712 30.4812 62.7712 30.6621L71.9969 39.8878C72.5396 40.4305 72.7205 41.1541 72.7205 41.8777C72.7205 42.6012 72.3587 43.5057 71.816 43.8675C70.7307 44.772 69.1026 44.5911 68.0172 43.5057L57.887 33.3755C57.3443 32.8328 57.1634 32.1092 57.1634 31.3856V18.542C56.9825 18.1802 56.8016 17.8184 56.2589 17.8184C55.7162 17.8184 55.3544 18.1802 55.3544 18.7229V21.4363H51.1938L53.0028 23.2453H55.3544V31.3856C55.3544 32.6519 55.8971 33.7373 56.6207 34.6418L66.7509 44.772C67.6554 45.6765 68.9217 46.2192 70.188 46.2192C71.2734 46.2192 72.1778 45.8574 73.0823 45.1338C74.1677 44.2293 74.7104 42.963 74.7104 41.6968C74.7104 40.4305 74.1677 39.3451 73.4441 38.4406L64.3993 29.7576Z" fill="white"/>
<path d="M49.2039 70.2784C50.1084 71.1829 51.1938 71.5447 52.4601 71.5447C53.7264 71.5447 54.8117 71.002 55.7162 70.2784C56.078 69.9166 56.078 69.3739 55.7162 69.0122C55.3544 68.6504 54.8117 68.6504 54.45 69.0122C53.3646 70.0975 51.5556 70.0975 50.6511 69.0122L12.1201 30.662C11.7583 30.3002 11.0347 30.3002 10.8538 30.662C10.6729 31.0238 10.492 31.5665 10.8538 31.9283L49.2039 70.2784Z" fill="white"/>
</svg>
