<svg width="69" height="64" viewBox="0 0 69 64" fill="none" xmlns="http://www.w3.org/2000/svg">
<path d="M64.6376 11.0654H31.4866C30.5156 11.0654 29.6834 11.4803 28.9899 12.0336L23.5803 17.428L18.3094 12.1719C17.061 10.927 15.1191 10.7887 13.7321 11.757C12.8998 12.3102 12.345 13.2784 12.345 14.2467C12.2063 15.2149 12.6224 16.3214 13.3159 17.013L21.2223 24.8971C22.4706 26.142 24.8286 26.142 26.077 24.8971L30.7931 20.1943V30.4298H20.39C18.4481 30.4298 16.9223 31.9513 16.9223 33.8878V46.4747L18.3094 45.9214V34.0261C18.3094 32.9196 19.2804 31.9513 20.39 31.9513H36.3414V36.1009H23.1642C22.748 36.1009 22.4706 36.3775 22.4706 36.7924V44.2616L23.8577 43.7083V37.3457H36.3414V38.4523L37.7284 37.899V28.3551C37.7284 27.2485 38.6994 26.2803 39.809 26.2803C40.9187 26.2803 41.8896 27.2485 41.8896 28.3551V36.1009L42.5832 35.8242H42.7219L43.2767 35.5476V17.9812H64.7763C65.7473 17.9812 66.7182 17.5663 67.4118 16.7364C68.1053 15.9065 68.3827 14.9383 68.244 13.97C67.9666 12.3102 66.4408 11.0654 64.6376 11.0654ZM66.4408 15.9065C66.0247 16.3214 65.4699 16.5981 64.9151 16.5981H42.7219C42.3058 16.5981 42.0283 16.8747 42.0283 17.2897V25.5887C41.4735 25.1738 40.78 24.8971 39.9477 24.8971C38.0058 24.8971 36.4801 26.4186 36.4801 28.3551V30.4298H32.3188V18.3962C32.3188 18.1196 32.1801 17.8429 31.9027 17.7046C31.6253 17.5663 31.3479 17.7046 31.2092 17.8429L25.3835 23.6523C24.5512 24.4822 23.1642 24.4822 22.4706 23.6523L14.5643 15.7682C14.1482 15.3532 13.8708 14.7999 14.0095 14.1084C14.0095 13.5551 14.4256 13.0018 14.8417 12.5869C15.674 12.0336 16.7836 12.1719 17.6159 12.8635L23.4416 18.6728C23.719 18.9495 24.1351 18.9495 24.4125 18.6728L30.2382 12.8635C30.6543 12.4485 31.2092 12.3102 31.764 12.3102H64.9151C66.0247 12.3102 66.9957 13.0018 67.1344 13.97C66.9957 14.7999 66.857 15.4915 66.4408 15.9065Z" fill="white"/>
<path d="M37.0349 9.68224C39.6703 9.68224 41.8896 7.46915 41.8896 4.84112C41.8896 2.21308 39.809 0 37.0349 0C34.2607 0 32.1801 2.21308 32.1801 4.84112C32.1801 7.46915 34.3994 9.68224 37.0349 9.68224ZM37.0349 1.38318C38.9768 1.38318 40.5025 2.90467 40.5025 4.84112C40.5025 6.77757 38.9768 8.29906 37.0349 8.29906C35.093 8.29906 33.5672 6.77757 33.5672 4.84112C33.5672 2.90467 35.093 1.38318 37.0349 1.38318Z" fill="white"/>
<path d="M44.3517 35.5066L43.6581 35.7832L40.7453 37.028L39.6356 37.5813L38.2485 38.1346L25.7649 43.2523L18.8295 46.0187L3.84913 52.243C2.32335 52.9346 1.07498 54.0411 0.520152 55.5626C-0.173384 57.0841 -0.173384 58.7439 0.520152 60.2654C1.21369 61.7869 2.32335 63.0318 3.84913 63.585C4.68137 63.8617 5.37491 64 6.20715 64C7.03939 64 7.87164 63.8617 8.56518 63.585L59.8869 42.4224C63.0771 41.1776 64.6029 37.443 63.2159 34.2617C61.9675 31.0804 58.2224 29.5589 55.0321 30.9421L44.9065 35.0916L44.3517 35.5066ZM57.5289 32.0486C59.4708 32.0486 61.274 33.1552 61.9675 35.0916C62.5223 36.3365 62.5223 37.5813 61.9675 38.8262C61.4127 40.071 60.5804 40.9009 59.332 41.4542L8.01035 62.6168C6.76198 63.1701 5.51362 63.1701 4.26525 62.6168C3.01688 62.0635 2.18464 61.2336 1.62981 59.9888C1.07498 58.7439 1.07498 57.4991 1.62981 56.2542C2.32335 55.0093 3.15559 54.0411 4.40396 53.6262L18.6908 47.6785L25.6262 44.9122L38.1098 39.7944L45.0452 37.028L55.5869 32.6019C56.2805 32.1869 56.8353 32.0486 57.5289 32.0486Z" fill="white"/>
</svg>
